<?xml version="1.0" standalone="yes"?>

<svg version="1.1" viewBox="0.0 0.0 343.9212598425197 151.33858267716536" fill="none" stroke="none" stroke-linecap="square" stroke-miterlimit="10" xmlns="http://www.w3.org/2000/svg" xmlns:xlink="http://www.w3.org/1999/xlink"><clipPath id="p.0"><path d="m0 0l343.92126 0l0 151.33858l-343.92126 0l0 -151.33858z" clip-rule="nonzero"></path></clipPath><g clip-path="url(#p.0)"><path fill="#000000" fill-opacity="0.0" d="m0 0l343.92126 0l0 151.33858l-343.92126 0z" fill-rule="evenodd"></path><path fill="#000000" fill-opacity="0.0" d="m9.299212 1.0551181l325.3228 0l0 149.22835l-325.3228 0z" fill-rule="evenodd"></path><path fill="#ba0000" d="m59.9997 83.980736q0.984375 -5.578125 -5.484375 -8.53125l-9.046875 -3.609375q-15.75 -7.03125 -14.953125 -19.359371q0.328125 -5.71875 3.75 -10.125q3.421875 -4.40625 9.609375 -6.90625q6.1875 -2.515625 13.359375 -2.421875q9.890621 0.1875 15.984371 5.890625q6.09375 5.6875 6.0 15.25l-13.6875 0q0.234375 -4.640625 -2.0468712 -7.21875q-2.265625 -2.578125 -7.046875 -2.671875q-4.6875 -0.09375 -8.15625 2.140625q-3.46875 2.21875 -4.125 6.109375q-0.890625 5.109375 6.84375 8.109375l6.1875 2.34375l3.5625 1.6406212q13.828121 6.84375 12.937496 19.21875q-0.421875 6.046875 -3.875 10.4375q-3.4375 4.375 -9.374996 6.71875q-5.921875 2.34375 -13.046875 2.203125q-7.265625 -0.140625 -12.9375 -3.046875q-5.671875 -2.90625 -8.625 -8.203125q-2.765625 -4.921875 -2.578125 -11.25l13.734375 0.046875q-0.65625 11.109375 10.921875 11.296875q5.015625 0 8.25 -2.203125q3.234375 -2.203125 3.84375 -5.859375zm40.82812 -1.078125l14.484375 -31.406246l14.71875 0l-29.671875 58.35937q-3.1875 6.703125 -7.484375 9.84375q-4.28125 3.140625 -9.90625 3.140625q-2.203125 0 -6.375 -0.984375l0.984375 -10.3125l1.828125 0.09375q6.46875 0.1875 9.46875 -4.734375l2.90625 -5.390625l-8.296875 -50.01562l13.6875 0l3.65625 31.406246zm55.078125 5.015625q0.75 -3.75 -5.203125 -5.4375l-4.265625 -1.078125q-15.140625 -4.171875 -14.71875 -14.71875q0.234375 -7.171871 6.34375 -11.687496q6.125 -4.53125 14.75 -4.4375q8.578125 0.09375 13.875 4.546875q5.296875 4.453125 5.390625 11.859371l-13.125 -0.046875q0.09375 -6.515621 -6.46875 -6.609371q-3.09375 0 -5.375 1.546875q-2.265625 1.546875 -2.78125 4.171871q-0.703125 3.75 5.671875 5.296875l1.875 0.421875q6.46875 1.546875 9.890625 3.546875q3.421875 1.984375 5.265625 4.9375q1.859375 2.953125 1.71875 7.078125q-0.140625 4.828125 -3.125 8.4375q-2.96875 3.609375 -8.15625 5.578125q-5.171875 1.96875 -10.890625 1.828125q-8.4375 -0.09375 -14.0625 -4.84375q-5.625 -4.765625 -5.71875 -12.3125l12.46875 0.09375q0.1875 7.265625 7.78125 7.359375q3.65625 0 6.015625 -1.5q2.375 -1.5 2.84375 -4.03125z" fill-rule="nonzero"></path><path fill="#303030" d="m180.79657 102.21511l0 -68.25l23.90625 0q12.421875 0 18.84375 4.765625q6.421875 4.75 6.421875 13.9375q0 5.015625 -2.578125 8.84375q-2.578125 3.8124962 -7.171875 5.593746q5.25 1.3125 8.265625 5.296875q3.03125 3.984375 3.03125 9.75q0 9.84375 -6.28125 14.90625q-6.28125 5.0625 -17.90625 5.15625l-26.53125 0zm14.0625 -29.71875l0 18.421875l12.046875 0q4.96875 0 7.75 -2.359375q2.796875 -2.375 2.796875 -6.546875q0 -9.375 -9.703125 -9.515625l-12.890625 0zm0 -9.937496l10.40625 0q10.640625 -0.1875 10.640625 -8.484375q0 -4.640625 -2.703125 -6.671875q-2.6875 -2.046875 -8.5 -2.046875l-9.84375 0l0 17.203125zm75.703156 39.656246q-0.9375 -1.828125 -1.359375 -4.546875q-4.9219055 5.484375 -12.7969055 5.484375q-7.453125 0 -12.359375 -4.3125q-4.890625 -4.3125 -4.890625 -10.875q0 -8.0625 5.96875 -12.375q5.984375 -4.3125 17.28125 -4.359375l6.2344055 0l0 -2.90625q0 -3.515625 -1.8125 -5.624996q-1.7969055 -2.109375 -5.6875305 -2.109375q-3.421875 0 -5.375 1.640625q-1.9375 1.640625 -1.9375 4.499996l-13.546875 0q0 -4.406246 2.71875 -8.156246q2.71875 -3.75 7.6875 -5.875q4.96875 -2.140625 11.15625 -2.140625q9.3750305 0 14.8750305 4.71875q5.515625 4.703125 5.515625 13.234371l0 21.984375q0.046875 7.21875 2.015625 10.921875l0 0.796875l-13.6875 0zm-11.2031555 -9.421875q3.0 0 5.53125 -1.328125q2.5312805 -1.34375 3.7500305 -3.59375l0 -8.71875l-5.0625305 0q-10.171875 0 -10.828125 7.03125l-0.046875 0.796875q0 2.53125 1.78125 4.171875q1.78125 1.640625 4.875 1.640625zm61.78128 -28.59375q-2.765625 -0.3749962 -4.875 -0.3749962q-7.6875 0 -10.078125 5.203121l0 33.1875l-13.546875 0l0 -50.718746l12.796875 0l0.375 6.046875q4.078125 -6.984375 11.296875 -6.984375q2.25 0 4.21875 0.609375l-0.1875 13.031246z" fill-rule="nonzero"></path><path fill="#303030" d="m174.12335 116.47244l2.5354462 -10.141731l146.28346 0l-2.535431 10.141731z" fill-rule="evenodd"></path><path stroke="#303030" stroke-width="1.0" stroke-linejoin="round" stroke-linecap="butt" d="m174.12335 116.47244l2.5354462 -10.141731l146.28346 0l-2.535431 10.141731z" fill-rule="evenodd"></path></g></svg>

